<svg xmlns="http://www.w3.org/2000/svg" width="128" height="64" viewBox="0 0 128 64">
  <rect width="128" height="64" fill="#a98c67"/>
  <rect y="6" width="128" height="10" fill="#b59771" opacity="0.45"/>
  <rect y="26" width="128" height="12" fill="#8c744f" opacity="0.22"/>
  <rect y="46" width="128" height="10" fill="#b89d75" opacity="0.4"/>
  <path d="M0 18 C16 12 28 20 44 18 S72 12 88 18 S112 24 128 18" stroke="#c9b089" stroke-width="3" fill="none" opacity="0.35"/>
  <path d="M0 40 C14 36 28 44 44 40 S72 34 88 40 S112 46 128 40" stroke="#80684a" stroke-width="4" fill="none" opacity="0.28"/>
  <g opacity="0.18" fill="#6b553b">
    <circle cx="12" cy="10" r="3"/>
    <circle cx="34" cy="52" r="4"/>
    <circle cx="62" cy="22" r="3.5"/>
    <circle cx="92" cy="48" r="4.2"/>
    <circle cx="114" cy="18" r="3.2"/>
  </g>
  <g opacity="0.16" fill="#d6c09a">
    <circle cx="20" cy="34" r="5"/>
    <circle cx="52" cy="8" r="3.2"/>
    <circle cx="80" cy="30" r="4.5"/>
    <circle cx="108" cy="56" r="3.8"/>
  </g>
</svg>
